<svg xmlns="http://www.w3.org/2000/svg" version="1.1" xmlns:xlink="http://www.w3.org/1999/xlink" xmlns:svgjs="http://svgjs.dev/svgjs" width="1440" height="560" preserveAspectRatio="none" viewBox="0 0 1440 560"><g mask="url(&quot;#SvgjsMask1140&quot;)" fill="none"><rect width="1440" height="560" x="0" y="0" fill="rgba(40, 42, 48, 1)"></rect><path d="M0,719.209C134.987,727.353,282.411,679.931,371.685,578.354C457.197,481.058,410.659,329.064,451.06,205.992C485.223,101.922,598.609,24.406,589.357,-84.737C580.056,-194.458,487.108,-277.851,403.928,-350.006C328.753,-415.217,233.761,-443.163,139.471,-474.994C41.161,-508.182,-58.736,-568.32,-158.524,-539.882C-258.445,-511.407,-303.497,-399.958,-377.989,-327.529C-461.126,-246.694,-592.776,-201.664,-621.829,-89.406C-651.074,23.594,-572.225,133.014,-524.777,239.658C-476.861,347.355,-430.954,455.664,-343.939,535.18C-245.969,624.706,-132.473,711.217,0,719.209" fill="#24262c"></path><path d="M1440 1145.71C1548.634 1163.141 1653.815 1095.685 1741.868 1029.716 1825.903 966.758 1902.644 884.255 1925.713 781.818 1947.363 685.682 1886.6779999999999 594.645 1861.292 499.427 1839.286 416.88599999999997 1828.614 334.071 1786.521 259.738 1736.462 171.337 1693.434 57.43599999999998 1595.57 30.17700000000002 1497.615 2.8920000000000528 1409.906 96.70499999999998 1313.117 127.875 1219.6100000000001 157.988 1108.7060000000001 143.784 1036.38 210.26100000000002 961.822 278.79 939.7180000000001 385.774 923.732 485.772 907.549 587.003 891.937 698.241 944.277 786.389 995.462 872.591 1113.397 883.06 1194.569 941.8969999999999 1282.45 1005.597 1332.8319999999999 1128.5140000000001 1440 1145.71" fill="#2c2e34"></path></g><defs><mask id="SvgjsMask1140"><rect width="1440" height="560" fill="#ffffff"></rect></mask></defs></svg>